<svg width="22" height="22" viewBox="0 0 22 22" fill="none" xmlns="http://www.w3.org/2000/svg">
<path d="M19.25 16.25C19.25 16.6478 19.092 17.0294 18.8107 17.3107C18.5294 17.592 18.1478 17.75 17.75 17.75H4.25C3.85218 17.75 3.47064 17.592 3.18934 17.3107C2.90804 17.0294 2.75 16.6478 2.75 16.25V8C2.75 7.60218 2.90804 7.22064 3.18934 6.93934C3.47064 6.65804 3.85218 6.5 4.25 6.5H7.25L8.75 4.25H13.25L14.75 6.5H17.75C18.1478 6.5 18.5294 6.65804 18.8107 6.93934C19.092 7.22064 19.25 7.60218 19.25 8V16.25Z" stroke="white" stroke-linecap="round" stroke-linejoin="round"/>
<path d="M11 14.75C12.6569 14.75 14 13.4069 14 11.75C14 10.0931 12.6569 8.75 11 8.75C9.34315 8.75 8 10.0931 8 11.75C8 13.4069 9.34315 14.75 11 14.75Z" stroke="white" stroke-linecap="round" stroke-linejoin="round"/>
</svg>
