<svg width="22" height="22" viewBox="0 0 22 22" fill="none" xmlns="http://www.w3.org/2000/svg">
<path d="M5.75 17.7501H16.25C17.0784 17.7501 17.75 17.0785 17.75 16.2501V5.75006C17.75 4.92163 17.0784 4.25006 16.25 4.25006H5.75C4.92157 4.25006 4.25 4.92163 4.25 5.75006V16.2501C4.25 17.0785 4.92157 17.7501 5.75 17.7501ZM5.75 17.7501L14 9.50006L17.75 13.2501M9.5 8.37506C9.5 8.99638 8.99632 9.50006 8.375 9.50006C7.75368 9.50006 7.25 8.99638 7.25 8.37506C7.25 7.75374 7.75368 7.25006 8.375 7.25006C8.99632 7.25006 9.5 7.75374 9.5 8.37506Z" stroke="white" stroke-linecap="round" stroke-linejoin="round"/>
</svg>
