<svg width="22" height="22" viewBox="0 0 22 22" fill="none" xmlns="http://www.w3.org/2000/svg">
<path d="M16.25 9.5V11C16.25 12.3924 15.6969 13.7277 14.7123 14.7123C13.7277 15.6969 12.3924 16.25 11 16.25M11 16.25C9.60761 16.25 8.27226 15.6969 7.28769 14.7123C6.30312 13.7277 5.75 12.3924 5.75 11V9.5M11 16.25V19.25M8 19.25H14M11 2.75C10.4033 2.75 9.83097 2.98705 9.40901 3.40901C8.98705 3.83097 8.75 4.40326 8.75 5V11C8.75 11.5967 8.98705 12.169 9.40901 12.591C9.83097 13.0129 10.4033 13.25 11 13.25C11.5967 13.25 12.169 13.0129 12.591 12.591C13.0129 12.169 13.25 11.5967 13.25 11V5C13.25 4.40326 13.0129 3.83097 12.591 3.40901C12.169 2.98705 11.5967 2.75 11 2.75Z" stroke="white" stroke-linecap="round" stroke-linejoin="round"/>
</svg>
